<svg width="96" height="111" viewBox="0 0 96 111" fill="none" xmlns="http://www.w3.org/2000/svg">
<path d="M23.25 42.8271C33.2882 33.3366 30.4191 27.3829 37.2847 22.9871C47.8577 16.225 67.5872 22.044 79.2298 31.3492C93.4885 42.7429 100.846 63.5514 92.4623 82.3724C83.537 102.415 60.0568 112.823 39.1059 109.682C20.3954 106.886 2.00286 93.0335 0.159997 76.4188C-0.0423565 74.6166 -0.924042 64.8819 5.26221 56.4945C10.3716 49.5556 15.286 50.364 23.2428 42.8356" fill="#FEF2F2"/>
<path d="M73.7928 45.7374C73.7928 47.0546 71.9627 48.2633 68.8943 49.2164C64.8057 50.4871 58.521 51.3084 51.4653 51.3084C44.4095 51.3084 38.1248 50.4949 34.0362 49.2164C30.9678 48.2633 29.1377 47.0546 29.1377 45.7374C29.1377 42.6612 39.1294 40.1663 51.4653 40.1663C63.8011 40.1663 73.7851 42.6612 73.7851 45.7374H73.7928Z" fill="#FEF2F2" stroke="#191A1A" stroke-width="0.72" stroke-miterlimit="10"/>
<path d="M46.6208 40.2969V51.1679C41.5743 50.8889 37.1664 50.1838 34.0435 49.2153C30.9751 48.2622 29.145 47.0535 29.145 45.7362C29.145 43.0785 36.6213 40.8548 46.6208 40.2969Z" fill="#FFC9C9"/>
<path d="M73.7924 45.7371V52.7029C73.7924 53.4855 73.146 54.2293 71.97 54.9112C68.5434 56.887 60.6544 58.274 51.4726 58.274C42.2908 58.274 34.394 56.887 30.9674 54.9112C29.7914 54.237 29.145 53.4932 29.145 52.7029V45.7371C29.145 47.0543 30.9751 48.263 34.0435 49.2161C38.1321 50.4868 44.4169 51.3082 51.4726 51.3082C58.5283 51.3082 64.8053 50.4946 68.9017 49.2161C71.9623 48.263 73.8002 47.0543 73.8002 45.7371H73.7924Z" fill="#FFC9C9" stroke="#191A1A" stroke-width="0.72" stroke-miterlimit="10"/>
<path d="M71.9692 54.9104L69.703 95.0238C69.703 98.0999 61.5336 100.595 51.4718 100.595C41.41 100.595 33.2406 98.0999 33.2406 95.0238L30.9744 54.9104C34.401 56.8862 42.29 58.2732 51.4796 58.2732C60.6692 58.2732 68.5504 56.8862 71.977 54.9104H71.9692Z" fill="#FFE2E2" stroke="#191A1A" stroke-width="0.72" stroke-miterlimit="10" stroke-linejoin="round"/>
<path d="M43.2001 77.04C43.2001 91.5179 40.0134 97.4725 38.42 98.64C34.0497 97.239 33.4124 96.4995 33.64 96.3049C34.0952 96.1103 35.8252 94.32 39.1029 88.7157C42.3807 83.1114 43.2001 78.5968 43.2001 77.04Z" fill="#C10007"/>
<path d="M71.97 54.9104L69.7037 95.0238C69.7037 98.0999 61.5344 100.595 51.4725 100.595C41.4107 100.595 33.2413 98.0999 33.2413 95.0238L30.9751 54.9104C34.4017 56.8862 42.2907 58.2732 51.4803 58.2732C60.6699 58.2732 68.5511 56.8862 71.9778 54.9104H71.97Z" stroke="#191A1A" stroke-width="0.72" stroke-miterlimit="10" stroke-linejoin="round"/>
<path d="M51.4719 64.3562V92.5991" stroke="#C10007" stroke-width="0.72" stroke-miterlimit="10" stroke-linecap="round"/>
<path d="M62.7023 64.3704L61.2148 92.5823" stroke="#C10007" stroke-width="0.72" stroke-miterlimit="10" stroke-linecap="round"/>
<path d="M59.5171 17.0618C59.5171 17.0618 64.3611 6.57043 71.8685 0.23999" stroke="#191A1A" stroke-width="0.48" stroke-miterlimit="10" stroke-linecap="round"/>
<path d="M63.2017 22.5555C63.2017 22.5555 63.9259 18.782 68.7621 13.0327" stroke="#191A1A" stroke-width="0.48" stroke-miterlimit="10" stroke-linecap="round"/>
<path d="M51.426 17.7977C51.426 17.7977 52.454 14.2954 55.3978 10.7002" stroke="#191A1A" stroke-width="0.48" stroke-miterlimit="10" stroke-linecap="round"/>
<path d="M73.7928 45.7374C73.7928 47.0546 71.9627 48.2633 68.8943 49.2164C64.8057 50.4871 58.521 51.3084 51.4653 51.3084C44.4095 51.3084 38.1248 50.4949 34.0362 49.2164C30.9678 48.2633 29.1377 47.0546 29.1377 45.7374C29.1377 42.6612 39.1294 40.1663 51.4653 40.1663C63.8011 40.1663 73.7851 42.6612 73.7851 45.7374H73.7928Z" stroke="#191A1A" stroke-width="0.72" stroke-miterlimit="10"/>
<path d="M65.7464 33.3391H62.055L63.1998 36.9111L54.641 41.4439L53.9245 37.0196L50.7939 38.4221L48.0292 34.4626L42.0715 37.0738L37.8428 32.4403L42.2662 27.4271L41.6899 20.7402L47.4295 19.0123L49.4855 21.3833L54.9058 17.9353L60.3806 19.0123L61.0348 24.6764L66.7744 26.8305L65.7464 33.3391Z" fill="#C10007"/>
<path d="M45.8171 28.0517L39.2717 33.8699L37.8171 32.4154L42.1808 27.3245L41.4535 20.779L47.2717 19.3245L45.8171 28.0517Z" fill="white"/>
<path d="M65.7464 33.3391H62.055L63.1998 36.9111L54.641 41.4439L53.9245 37.0196L50.7939 38.4221L48.0292 34.4626L42.0715 37.0738L37.8428 32.4403L42.2662 27.4271L41.6899 20.7402L47.4295 19.0123L49.4855 21.3833L54.9058 17.9353L60.3806 19.0123L61.0348 24.6764L66.7744 26.8305L65.7464 33.3391Z" stroke="#191A1A" stroke-width="0.72" stroke-miterlimit="10" stroke-linecap="round" stroke-linejoin="round"/>
<path d="M56.698 35.7795L53.9255 37.0193" stroke="#191A1A" stroke-width="0.72" stroke-miterlimit="10" stroke-linecap="round" stroke-linejoin="round"/>
<path d="M48.0299 34.4637L46.6204 32.4414" stroke="#191A1A" stroke-width="0.72" stroke-miterlimit="10" stroke-linecap="round" stroke-linejoin="round"/>
<path d="M60.981 30.0151L62.0479 33.3392H62.0557" fill="#FFC9C9"/>
<path d="M60.981 30.0151L62.0479 33.3392H62.0557" stroke="#191A1A" stroke-width="0.72" stroke-miterlimit="10" stroke-linecap="round" stroke-linejoin="round"/>
<path d="M52.8497 25.2665L49.4854 21.3845" stroke="#191A1A" stroke-width="0.72" stroke-miterlimit="10" stroke-linecap="round" stroke-linejoin="round"/>
<path d="M42.4457 29.5813L42.2666 27.4272" stroke="#191A1A" stroke-width="0.72" stroke-miterlimit="10" stroke-linecap="round" stroke-linejoin="round"/>
<path d="M62.0561 33.3391H62.0479" stroke="#191A1A" stroke-width="0.72" stroke-miterlimit="10" stroke-linecap="round" stroke-linejoin="round"/>
<path d="M35.0256 84.3174C31.046 94.1579 24.3485 101.093 18.8036 101.736C17.7133 101.86 16.662 101.736 15.6885 101.348C9.77757 98.9774 8.84304 87.5097 13.6092 75.7399C18.3753 63.9624 27.0275 56.338 32.9462 58.709C33.9197 59.0964 34.753 59.7318 35.4539 60.5763C39.0129 64.8534 39.0051 74.4769 35.0256 84.3252V84.3174Z" fill="#FFC9C9" stroke="#191A1A" stroke-width="0.72" stroke-miterlimit="10"/>
<path d="M40.6486 86.5632C35.8824 98.3407 27.2302 105.965 21.3115 103.594L15.6887 101.347C16.6622 101.735 17.7135 101.858 18.8038 101.735C24.3487 101.091 31.0462 94.1566 35.0258 84.3161C39.0053 74.4757 39.0131 64.8522 35.4541 60.5673C34.7532 59.7227 33.9199 59.0874 32.9464 58.7L38.5692 60.9547C44.4802 63.3257 45.4147 74.7856 40.6486 86.5632Z" fill="#FEF2F2" stroke="#191A1A" stroke-width="0.72" stroke-miterlimit="10"/>
<path d="M22.7053 86.9431L20.9063 86.1063C19.154 85.3005 18.4765 83.0612 19.3877 81.1163L21.9343 75.6692C22.8454 73.7244 25.0026 72.8023 26.7471 73.6082L28.5461 74.445" stroke="#191A1A" stroke-width="0.72" stroke-miterlimit="10"/>
</svg>
