<svg width="106" height="88" viewBox="0 0 106 88" fill="none" xmlns="http://www.w3.org/2000/svg">
<path d="M41.7841 2.60303C39.4888 3.19907 29.308 5.96825 19.1405 13.3169C16.6771 15.0977 6.72183 22.2946 2.46729 31.9682C-4.77249 48.4352 3.89137 73.4837 28.8436 83.5534C57.9089 95.278 94.6252 80.8472 102.997 61.5295C106.712 52.9629 106.88 38.7542 97.522 29.3878C89.9903 21.8466 77.1162 18.2667 77.6159 11.1327C77.8548 7.69713 80.9683 6.74939 80.1059 4.58736C78.0582 -0.543767 58.0018 -1.60627 41.7841 2.60303Z" fill="#434344"/>
<path d="M100.617 81.9198H76.4902V28.3008H100.617V81.9198Z" fill="#FDEEB2"/>
<path d="M100.618 82.1369H76.4905C76.3568 82.1369 76.2478 82.0386 76.2478 81.918V28.299C76.2478 28.1783 76.3568 28.0801 76.4905 28.0801H100.618C100.751 28.0801 100.86 28.1783 100.86 28.299V81.918C100.86 82.0386 100.751 82.1369 100.618 82.1369ZM76.7332 81.6946H100.37V28.5178H76.7332V81.6946Z" fill="black"/>
<path d="M102.43 29.9787H79.1648V20.0312H98.6705L102.43 29.9787Z" fill="#F2D020"/>
<path d="M102.43 30.1977H79.1651C79.0313 30.1977 78.9224 30.0995 78.9224 29.9789V20.0314C78.9224 19.9108 79.0313 19.8125 79.1651 19.8125H98.6708C98.7748 19.8125 98.869 19.8706 98.9036 19.9599L102.663 29.9074C102.688 29.9744 102.678 30.0503 102.633 30.1084C102.589 30.1665 102.515 30.2022 102.435 30.2022M79.4127 29.76H102.093L98.5024 20.2547H79.4177V29.76H79.4127Z" fill="black"/>
<path d="M95.3816 47.1224H89.7449V33.7891H95.3816V47.1224Z" fill="#FEF7EE"/>
<path d="M95.6192 67.8626H89.9775V54.5293H95.6192V67.8626Z" fill="#FEF7EE"/>
<path d="M83.2424 49.6123H10.5366V13.3574H83.2424V49.6123Z" fill="white"/>
<path d="M83.0032 49.6123H10.7808C10.6463 49.6123 10.5366 49.574 10.5366 49.5271V13.4427C10.5366 13.3957 10.6463 13.3574 10.7808 13.3574H82.9982C83.1328 13.3574 83.2424 13.3957 83.2424 13.4427V49.5253C83.2424 49.5723 83.1328 49.6106 82.9982 49.6106M11.025 49.4383H82.754V13.528H11.025V49.44V49.4383Z" fill="black"/>
<path d="M82.6717 83.3178H10.8997V49.6562H82.6717V83.3178Z" fill="#FDEEB2"/>
<path d="M82.6725 83.5407H10.9004C10.7667 83.5407 10.6577 83.4424 10.6577 83.3218V49.6603C10.6577 49.5397 10.7667 49.4414 10.9004 49.4414H82.6725C82.8062 49.4414 82.9152 49.5397 82.9152 49.6603V83.3218C82.9152 83.4424 82.8062 83.5407 82.6725 83.5407ZM11.1431 83.0985H82.4298V49.8791H11.1431V83.0985Z" fill="black"/>
<path d="M79.3234 7.85156H14.253L8.68066 15.8069H84.8958L79.3234 7.85156Z" fill="#F2D020"/>
<path d="M84.8964 16.0259H8.68129C8.59213 16.0259 8.50793 15.9812 8.4683 15.9142C8.42372 15.8427 8.42868 15.7579 8.47821 15.6909L14.0555 7.73555C14.1001 7.67301 14.1794 7.63281 14.2636 7.63281H79.329C79.4132 7.63281 79.4924 7.67301 79.537 7.73555L85.1094 15.6909C85.1589 15.7579 85.1589 15.8427 85.1193 15.9142C85.0747 15.9857 84.9954 16.0259 84.9063 16.0259M9.13203 15.5881H84.4605L79.1952 8.07502H14.3874L9.12213 15.5881H9.13203Z" fill="black"/>
<path d="M84.109 50.7375H9.46411V48.5801H84.109V50.7375Z" fill="#F2D020"/>
<path d="M84.1081 50.9558H9.46317C9.32943 50.9558 9.22046 50.8576 9.22046 50.737V48.584C9.22046 48.4634 9.32943 48.3651 9.46317 48.3651H84.1081C84.2418 48.3651 84.3508 48.4634 84.3508 48.584V50.737C84.3508 50.8576 84.2418 50.9558 84.1081 50.9558ZM9.70587 50.5136H83.8604V48.7984H9.71083V50.5136H9.70587Z" fill="black"/>
<path d="M22.6294 23.5918C25.2942 23.5918 27.4488 25.5348 27.4488 27.9335V41.4767H17.8049V27.9335C17.8049 25.5348 19.9645 23.5918 22.6244 23.5918" fill="#FDEEB2"/>
<path d="M22.6289 39.8186C22.4952 39.8186 22.3862 39.7204 22.3862 39.5998V25.4669C22.3862 25.3463 22.4952 25.248 22.6289 25.248C22.7627 25.248 22.8716 25.3463 22.8716 25.4669V39.5998C22.8716 39.7204 22.7627 39.8186 22.6289 39.8186Z" fill="#FEF7EE"/>
<path d="M18.8694 36.6265C18.805 36.6265 18.7456 36.6042 18.6961 36.564C18.602 36.4791 18.602 36.3407 18.6961 36.2513L21.2866 33.9152C21.3807 33.8303 21.5392 33.8303 21.6333 33.9152C21.7274 34.0001 21.7274 34.143 21.6333 34.2279L19.0428 36.564C18.9933 36.6087 18.9338 36.6265 18.8694 36.6265Z" fill="white"/>
<path d="M23.8226 32.1577C23.7582 32.1577 23.6987 32.1353 23.6492 32.0951C23.5551 32.0103 23.5551 31.8718 23.6492 31.7825L25.467 30.1476C25.5611 30.0628 25.7147 30.0628 25.8138 30.1476C25.9079 30.2325 25.9079 30.371 25.8138 30.4603L23.9959 32.0951C23.9464 32.1398 23.887 32.1577 23.8226 32.1577Z" fill="white"/>
<path d="M38.7317 23.5918C41.3965 23.5918 43.5511 25.5348 43.5511 27.9335V41.4767H33.9072V27.9335C33.9072 25.5348 36.0668 23.5918 38.7267 23.5918" fill="#FDEEB2"/>
<path d="M38.7315 39.8186C38.5977 39.8186 38.4888 39.7204 38.4888 39.5998V25.4669C38.4888 25.3463 38.5977 25.248 38.7315 25.248C38.8652 25.248 38.9742 25.3463 38.9742 25.4669V39.5998C38.9742 39.7204 38.8652 39.8186 38.7315 39.8186Z" fill="#FEF7EE"/>
<path d="M34.9727 36.6265C34.9083 36.6265 34.8489 36.6042 34.7993 36.564C34.7052 36.4791 34.7052 36.3407 34.7993 36.2513L37.3899 33.9152C37.484 33.8303 37.6425 33.8303 37.7366 33.9152C37.8307 34.0001 37.8307 34.143 37.7366 34.2279L35.1461 36.564C35.0965 36.6087 35.0371 36.6265 34.9727 36.6265Z" fill="white"/>
<path d="M39.9307 32.1577C39.8663 32.1577 39.8069 32.1353 39.7574 32.0951C39.6632 32.0103 39.6632 31.8718 39.7574 31.7825L41.5752 30.1476C41.6693 30.0628 41.8228 30.0628 41.9219 30.1476C42.016 30.2325 42.016 30.371 41.9219 30.4603L40.1041 32.0951C40.0545 32.1398 39.9951 32.1577 39.9307 32.1577Z" fill="white"/>
<path d="M54.8396 23.5918C57.5044 23.5918 59.659 25.5348 59.659 27.9335V41.4767H50.0151V27.9335C50.0151 25.5348 52.1747 23.5918 54.8346 23.5918" fill="#FDEEB2"/>
<path d="M54.8396 39.8186C54.7059 39.8186 54.5969 39.7204 54.5969 39.5998V25.4669C54.5969 25.3463 54.7059 25.248 54.8396 25.248C54.9734 25.248 55.0823 25.3463 55.0823 25.4669V39.5998C55.0823 39.7204 54.9734 39.8186 54.8396 39.8186Z" fill="#FEF7EE"/>
<path d="M51.0801 36.6265C51.0157 36.6265 50.9563 36.6042 50.9068 36.564C50.8127 36.4791 50.8127 36.3407 50.9068 36.2513L53.4973 33.9152C53.5914 33.8303 53.7499 33.8303 53.844 33.9152C53.9381 34.0001 53.9381 34.143 53.844 34.2279L51.2535 36.564C51.204 36.6087 51.1445 36.6265 51.0801 36.6265Z" fill="white"/>
<path d="M56.0389 32.1577C55.9745 32.1577 55.915 32.1353 55.8655 32.0951C55.7714 32.0103 55.7714 31.8718 55.8655 31.7825L57.6833 30.1476C57.7774 30.0628 57.9359 30.0628 58.0301 30.1476C58.1242 30.2325 58.1242 30.371 58.0301 30.4603L56.2122 32.0951C56.1627 32.1398 56.1033 32.1577 56.0389 32.1577Z" fill="white"/>
<path d="M70.9477 23.5918C73.6076 23.5918 75.7672 25.5348 75.7672 27.9335V41.4767H66.1233V27.9335C66.1233 25.5348 68.2829 23.5918 70.9428 23.5918" fill="#FDEEB2"/>
<path d="M70.9478 39.8186C70.8141 39.8186 70.7051 39.7204 70.7051 39.5998V25.4669C70.7051 25.3463 70.8141 25.248 70.9478 25.248C71.0815 25.248 71.1905 25.3463 71.1905 25.4669V39.5998C71.1905 39.7204 71.0815 39.8186 70.9478 39.8186Z" fill="#FEF7EE"/>
<path d="M67.1883 36.6265C67.1239 36.6265 67.0645 36.6042 67.0149 36.564C66.9208 36.4791 66.9208 36.3407 67.0149 36.2513L69.6054 33.9152C69.6996 33.8303 69.8531 33.8303 69.9522 33.9152C70.0463 34.0001 70.0463 34.143 69.9522 34.2279L67.3616 36.564C67.3121 36.6087 67.2527 36.6265 67.1883 36.6265Z" fill="white"/>
<path d="M72.1419 32.1577C72.0775 32.1577 72.0181 32.1353 71.9685 32.0951C71.8744 32.0103 71.8744 31.8718 71.9685 31.7825L73.7864 30.1476C73.8805 30.0628 74.039 30.0628 74.1331 30.1476C74.2272 30.2325 74.2272 30.371 74.1331 30.4603L72.3153 32.0951C72.2657 32.1398 72.2063 32.1577 72.1419 32.1577Z" fill="white"/>
<path d="M45.7267 82.8066H36.5813V56.3085H45.7267V82.8066Z" fill="#F2D020"/>
<path d="M57.6158 82.8066H47.5559V56.3085H57.6158V82.8066Z" fill="#F2D020"/>
<path d="M38.4 67.2451C38.3356 67.2451 38.2761 67.2227 38.2266 67.1825C38.1325 67.0977 38.1325 66.9547 38.2266 66.8699L43.4968 62.1262C43.5909 62.0413 43.7445 62.0413 43.8435 62.1262C43.9376 62.211 43.9376 62.3495 43.8435 62.4388L38.5733 67.1825C38.5238 67.2272 38.4643 67.2451 38.4 67.2451Z" fill="#FEF7EE"/>
<path d="M38.6927 73.0708C38.6283 73.0708 38.5688 73.0485 38.5193 73.0083C38.4252 72.9234 38.4252 72.7805 38.5193 72.6956L43.5221 68.1887C43.6162 68.1038 43.7747 68.1038 43.8688 68.1887C43.9629 68.2735 43.9629 68.4165 43.8688 68.5013L38.866 73.0083C38.8165 73.0485 38.7571 73.0708 38.6927 73.0708Z" fill="#FEF7EE"/>
<path d="M49.8919 70.4716C49.8275 70.4716 49.7681 70.4493 49.7185 70.4091C49.6244 70.3242 49.6244 70.1813 49.7185 70.0964L54.9887 65.3527C55.0829 65.2678 55.2364 65.2678 55.3355 65.3527C55.4296 65.4376 55.4296 65.5805 55.3355 65.6654L50.0653 70.4091C50.0157 70.4538 49.9563 70.4716 49.8919 70.4716Z" fill="#FEF7EE"/>
<path d="M50.1832 76.2953C50.1188 76.2953 50.0593 76.273 50.0098 76.2328C49.9157 76.1479 49.9157 76.0094 50.0098 75.9201L55.0125 71.4131C55.1066 71.3283 55.2602 71.3283 55.3593 71.4131C55.4534 71.498 55.4534 71.6365 55.3593 71.7258L50.3565 76.2328C50.3119 76.2774 50.2475 76.2953 50.1832 76.2953Z" fill="#FEF7EE"/>
<path d="M22.6292 54.2246C26.4134 54.2246 29.4844 56.9895 29.4844 60.3977V79.6494H15.7739V60.3977C15.7739 56.9895 18.8449 54.2246 22.6292 54.2246Z" fill="#FEF7EE"/>
<path d="M22.6289 77.207C22.4952 77.207 22.3862 77.1087 22.3862 76.9881V56.8966C22.3862 56.776 22.4952 56.6777 22.6289 56.6777C22.7627 56.6777 22.8716 56.776 22.8716 56.8966V76.9881C22.8716 77.1087 22.7627 77.207 22.6289 77.207Z" fill="#FDEEB2"/>
<path d="M17.2798 72.664C17.2154 72.664 17.156 72.6417 17.1065 72.6015C17.0124 72.5166 17.0124 72.3782 17.1065 72.2888L20.7917 68.97C20.8858 68.8852 21.0443 68.8852 21.1384 68.97C21.2325 69.0549 21.2325 69.1934 21.1384 69.2827L17.4532 72.6015C17.4037 72.6462 17.3442 72.664 17.2798 72.664Z" fill="#FDEEB2"/>
<path d="M24.3277 66.3168C24.2633 66.3168 24.2039 66.2945 24.1543 66.2543C24.0602 66.1694 24.0602 66.031 24.1543 65.9416L26.7399 63.6144C26.834 63.5296 26.9925 63.5296 27.0866 63.6144C27.1807 63.6993 27.1807 63.8422 27.0866 63.9271L24.501 66.2543C24.4515 66.299 24.3921 66.3168 24.3277 66.3168Z" fill="#FDEEB2"/>
<path d="M70.948 54.2246C74.7323 54.2246 77.8033 56.9895 77.8033 60.3977V79.6494H64.0928V60.3977C64.0928 56.9895 67.1638 54.2246 70.948 54.2246Z" fill="#FEF7EE"/>
<path d="M70.9478 77.207C70.8141 77.207 70.7051 77.1087 70.7051 76.9881V56.8966C70.7051 56.776 70.8141 56.6777 70.9478 56.6777C71.0815 56.6777 71.1905 56.776 71.1905 56.8966V76.9881C71.1905 77.1087 71.0815 77.207 70.9478 77.207Z" fill="#FDEEB2"/>
<path d="M65.5984 72.664C65.534 72.664 65.4746 72.6417 65.4251 72.6015C65.331 72.5166 65.331 72.3782 65.4251 72.2888L69.1103 68.97C69.2044 68.8852 69.3629 68.8852 69.457 68.97C69.5511 69.0549 69.5511 69.1934 69.457 69.2827L65.7718 72.6015C65.7223 72.6462 65.6628 72.664 65.5984 72.664Z" fill="#FDEEB2"/>
<path d="M72.6475 66.3168C72.5881 66.3168 72.5237 66.2945 72.4741 66.2543C72.38 66.1694 72.38 66.0265 72.4741 65.9416L75.0597 63.6144C75.1538 63.5296 75.3123 63.5296 75.4064 63.6144C75.5006 63.6993 75.5006 63.8422 75.4064 63.9271L72.8209 66.2543C72.7763 66.299 72.7119 66.3168 72.6475 66.3168Z" fill="#FDEEB2"/>
</svg>
