<svg width="1015" height="184" viewBox="0 0 1015 184" fill="none" xmlns="http://www.w3.org/2000/svg">
<g clip-path="url(#clip0_7274_28925)">
<path d="M0 10C0 4.47715 4.47715 0 10 0H1005C1010.52 0 1015 4.47715 1015 10V174C1015 179.523 1010.52 184 1005 184H10C4.47717 184 0 179.523 0 174V10Z" fill="url(#paint0_linear_7274_28925)"/>
<ellipse opacity="0.22" cx="17.9356" cy="252.935" rx="143.936" ry="143.935" fill="#ECBD84"/>
<ellipse opacity="0.22" cx="764.254" cy="0.254997" rx="121.254" ry="121.255" fill="#ECBD84"/>
<path d="M885.444 62.4337C870.905 62.219 862.878 62.8632 851.261 69.0542C843.234 73.3485 840.558 81.6866 838.869 85.9094C842.424 91.492 859.287 119.298 849.008 147.032C847.564 150.968 845.346 155.442 841.931 160.058C844.853 161.418 849.254 163.028 854.64 163.243C863.688 163.601 868.793 159.879 873.932 158.269C893.33 152.221 909.771 177.486 919.839 171.903C926.915 167.967 924.838 152.114 921.705 128.101C916.565 88.7365 904.983 76.1756 901.216 72.4538C894.598 65.905 887.24 62.4337 885.374 62.3979" fill="#40403F"/>
<path d="M770.783 60.3592C770.571 59.894 770.184 59.5004 769.726 59.2499C767.931 58.2121 763.847 55.7071 763.284 54.1683C762.65 52.4863 768.072 49.9097 774.057 52.3432C775.676 52.9873 777.19 54.0967 777.894 55.4923C778.07 55.8502 778 55.7428 778.281 56.2081C780.112 59.3572 780.957 62.0412 781.379 64.4389C781.626 65.8703 783.245 68.59 783.28 69.8426C783.351 74.5305 778.387 77.6797 775.5 69.4131C775.078 68.1606 773.529 64.5462 772.789 63.5084C772.05 62.4706 771.24 61.2181 770.818 60.3235" fill="white"/>
<path d="M779.971 75.1397C778.774 75.1397 776.591 74.3882 774.972 69.6644C774.549 68.4477 773.036 64.8691 772.331 63.8671C771.451 62.6504 770.712 61.4337 770.29 60.5748C770.114 60.2169 769.832 59.9306 769.48 59.7159C766.734 58.1055 763.354 55.8868 762.791 54.3838C762.65 54.0617 762.58 53.3818 763.354 52.5945C764.833 51.1273 769.339 49.8747 774.268 51.8788C776.169 52.6661 777.647 53.8828 778.387 55.2784C778.457 55.4216 778.492 55.5289 778.527 55.6005C778.563 55.6721 778.598 55.7437 778.739 55.9942C780.393 58.857 781.414 61.6126 781.872 64.4039C781.977 65.0123 782.365 65.9069 782.752 66.8016C783.28 67.9825 783.773 69.0919 783.773 69.9149C783.773 72.5273 782.365 74.7461 780.464 75.1039C780.323 75.1039 780.147 75.1397 779.971 75.1397ZM769.057 51.9145C766.628 51.9145 764.762 52.6661 764.058 53.3818C763.953 53.4891 763.671 53.7754 763.777 54.0259C764.129 54.9564 766.487 56.7815 770.008 58.8213C770.571 59.1433 770.994 59.6086 771.275 60.1811C771.698 61.1116 772.543 62.3999 773.212 63.2945C774.021 64.4397 775.57 68.0899 775.993 69.3424C777.119 72.5989 778.739 74.3524 780.288 74.0661C781.661 73.8156 782.752 72.0263 782.717 69.9507C782.717 69.3782 782.224 68.2688 781.801 67.2668C781.379 66.2648 780.957 65.3343 780.851 64.6186C780.393 61.9346 779.408 59.2865 777.823 56.5667C777.647 56.2804 777.612 56.1731 777.542 56.0657C777.542 55.9942 777.507 55.9584 777.436 55.8152C776.838 54.6343 775.535 53.5965 773.88 52.9166C772.155 52.2008 770.536 51.9503 769.093 51.9503L769.057 51.9145Z" fill="#40403F"/>
<path d="M794.334 59.2132L792.468 67.3366L788.631 66.1915C788.42 66.1199 788.208 66.0125 788.068 65.8694L787.786 65.5831C787.434 65.2252 786.906 65.1179 786.413 65.261C786.166 65.3326 785.885 65.3326 785.603 65.261L757.087 56.8871C756.841 56.8155 756.63 56.7082 756.419 56.6008L749.976 52.6643L757.158 52.1633C757.545 52.1633 757.932 52.1633 758.32 52.2349L787.363 57.8891C787.61 57.9249 787.856 58.068 788.032 58.2112H788.068C788.42 58.569 788.948 58.6764 789.405 58.569L789.652 58.4975C789.863 58.4259 790.074 58.4259 790.321 58.4975L794.299 59.2848" fill="white"/>
<path d="M792.505 67.8748C792.505 67.8748 792.4 67.8748 792.364 67.8748L788.527 66.7296C788.245 66.6581 787.964 66.4791 787.753 66.2644L787.471 65.9781C787.26 65.7634 786.908 65.6918 786.626 65.7634C786.274 65.8708 785.887 65.8708 785.535 65.7634L757.019 57.3895C756.737 57.3179 756.456 57.1748 756.209 57.0316L749.767 53.0952C749.556 52.9878 749.485 52.7373 749.52 52.5226C749.591 52.3079 749.767 52.1289 750.013 52.1289L757.195 51.6279C757.617 51.6279 758.075 51.6279 758.498 51.6995L787.541 57.3537C787.893 57.4253 788.21 57.5684 788.457 57.8189H788.492C788.703 58.0694 789.02 58.141 789.302 58.0336L789.548 57.9621C789.83 57.8547 790.147 57.8547 790.463 57.9263L794.442 58.7136C794.442 58.7136 794.723 58.8209 794.794 58.9641C794.864 59.0714 794.899 59.2504 794.864 59.3935L792.998 67.5169C792.998 67.5169 792.892 67.8032 792.752 67.8748C792.681 67.9106 792.576 67.9464 792.47 67.9464M786.837 64.7614C787.33 64.7614 787.788 64.9403 788.14 65.2982L788.422 65.5845C788.422 65.5845 788.633 65.7634 788.774 65.7992L792.083 66.7654L793.667 59.7514L790.217 59.0714C790.217 59.0714 789.935 59.0714 789.83 59.0714L789.583 59.143C788.95 59.3219 788.245 59.1788 787.753 58.7136H787.717C787.717 58.7136 787.471 58.4989 787.295 58.4631L758.251 52.8089C757.899 52.7373 757.547 52.7373 757.23 52.7373L751.738 53.1309L756.737 56.2085C756.737 56.2085 757.089 56.3875 757.265 56.459L785.781 64.833C785.781 64.833 786.098 64.8688 786.274 64.833C786.45 64.7614 786.661 64.7614 786.837 64.7614Z" fill="#40403F"/>
<path d="M756.84 57.2808C756.84 57.2808 756.769 57.2808 756.734 57.2808C756.452 57.2092 756.241 56.9587 756.311 56.6366L756.91 53.3801C756.98 53.0938 757.227 52.8791 757.544 52.9506C757.825 53.0222 758.037 53.2727 757.966 53.5948L757.368 56.8513C757.332 57.1018 757.086 57.2808 756.84 57.2808Z" fill="#40403F"/>
<path d="M799.086 69.0888L792.819 67.4426C792.573 67.371 792.397 67.1205 792.467 66.8342L794.192 59.6412C794.263 59.3549 794.544 59.2118 794.791 59.2834L801.057 60.9295C802.289 61.2516 803.064 62.5041 802.747 63.7208L801.832 67.4784C801.55 68.6951 800.283 69.4466 799.051 69.1245" fill="#40403F"/>
<path d="M799.648 69.6987C799.402 69.6987 799.155 69.6987 798.909 69.5914L792.643 67.9452C792.114 67.8021 791.762 67.2295 791.903 66.6927L793.628 59.4997C793.699 59.2134 793.875 58.9987 794.086 58.8556C794.332 58.7124 794.614 58.6766 794.86 58.7482L801.127 60.3943C802.641 60.788 803.591 62.3268 803.204 63.8656L802.289 67.6231C802.113 68.3389 801.655 68.9472 801.021 69.3409C800.564 69.5914 800.071 69.7345 799.578 69.7345M792.889 66.979L799.12 68.5894C799.578 68.6967 800.071 68.6251 800.493 68.4104C800.88 68.1599 801.162 67.8021 801.268 67.3726L802.183 63.6151C802.394 62.6847 801.831 61.7184 800.845 61.4679L794.614 59.8576L792.889 66.979Z" fill="#40403F"/>
<path d="M791.095 65.7988C791.095 65.7988 790.989 65.7988 790.954 65.7988C790.672 65.7273 790.496 65.441 790.567 65.1547L791.764 60.4309C791.834 60.1446 792.116 59.9657 792.397 60.0373C792.679 60.1088 792.855 60.3951 792.785 60.6814L791.588 65.4052C791.517 65.6557 791.306 65.7988 791.06 65.7988" fill="#40403F"/>
<path d="M787.47 64.3324C787.47 64.3324 787.399 64.3324 787.329 64.3324C787.047 64.2608 786.871 63.9745 786.942 63.6882L787.928 59.8591C787.998 59.5728 788.28 59.3939 788.561 59.4655C788.843 59.5371 789.019 59.8234 788.948 60.1096L787.963 63.9387C787.892 64.1893 787.681 64.3324 787.435 64.3324" fill="#40403F"/>
<path d="M784.653 63.5802C784.653 63.5802 784.547 63.5802 784.512 63.5802L776.063 61.2183C775.781 61.1467 775.605 60.8246 775.676 60.5383C775.746 60.252 776.063 60.0731 776.345 60.1447L784.794 62.5066C785.075 62.5781 785.251 62.9002 785.181 63.1865C785.111 63.437 784.899 63.5802 784.653 63.5802Z" fill="#40403F"/>
<path d="M763.672 57.8175C763.672 57.8175 763.566 57.8175 763.531 57.8175L758.426 56.4219C758.145 56.3503 757.969 56.064 758.039 55.742C758.109 55.4557 758.426 55.2767 758.708 55.3483L763.813 56.744C764.094 56.8155 764.27 57.1018 764.2 57.4239C764.129 57.6744 763.918 57.8175 763.672 57.8175Z" fill="#40403F"/>
<path d="M800.883 63.6859C800.883 63.6859 800.778 63.6859 800.742 63.6859L795.602 62.326C795.321 62.2545 795.145 61.9682 795.215 61.6819C795.286 61.3956 795.567 61.2167 795.884 61.2882L801.024 62.6481C801.306 62.7197 801.482 63.006 801.411 63.2923C801.341 63.5428 801.13 63.6859 800.883 63.6859Z" fill="white"/>
<path d="M776.486 63.0065C776.028 62.4697 775.887 61.9687 775.641 61.3603C775.218 60.3583 774.549 59.4994 773.704 58.8195C773 58.2827 772.261 57.7459 771.979 57.6028C770.571 56.6723 769.656 56.4218 768.67 56.4934C767.72 56.6008 765.713 56.4219 766.593 57.9607C766.593 57.9607 766.593 58.3543 768.811 59.1416C768.811 59.1416 769.445 59.1774 770.536 61.5393C771.134 62.8991 771.944 64.0085 772.507 64.6884C772.789 65.0105 773.141 65.2968 773.528 65.4041C775.394 65.9767 776.767 63.1496 776.802 63.1496L776.486 63.0065Z" fill="white"/>
<path d="M773.916 66.2284C773.916 66.2284 773.775 66.2284 773.74 66.1927C773.67 66.1927 772.332 65.6559 771.733 65.0475C771.064 64.3318 770.255 63.115 769.656 61.7552C768.917 60.1806 768.389 59.6796 768.389 59.6796C768.354 59.6796 768.283 59.6796 768.248 59.6796C767.051 59.2502 766.382 58.7849 766.065 58.4271C765.749 58.105 765.537 57.7114 765.502 57.3177C765.467 56.9956 765.537 56.6736 765.784 56.4588C766.417 55.7789 768.037 55.8147 768.354 55.8505C769.692 55.922 770.466 56.2083 771.909 57.2103C772.367 57.5324 773.036 57.9976 773.67 58.4629C774.62 59.1786 775.324 60.1448 775.782 61.2184C775.958 61.6478 776.099 61.8267 776.979 62.2204C777.261 62.3278 777.366 62.6498 777.261 62.9361C777.155 63.2224 776.838 63.3298 776.556 63.2224C775.5 62.7572 775.113 62.3993 774.796 61.6478C774.409 60.7532 773.81 59.9301 773.036 59.3217C772.437 58.8565 771.804 58.4271 771.346 58.105C770.044 57.2103 769.445 56.9956 768.319 56.9241C767.579 56.8883 766.734 57.0314 766.593 57.2103C766.593 57.3893 766.734 57.5682 766.875 57.7113C767.122 57.9618 767.65 58.3555 768.635 58.6776C769.023 58.7849 769.727 59.2859 770.712 61.3615C771.276 62.614 771.98 63.7234 772.578 64.3676C772.86 64.6538 773.705 65.0833 774.198 65.2622C774.479 65.3696 774.62 65.6916 774.515 65.9421C774.444 66.1569 774.233 66.3 774.022 66.3" fill="#40403F"/>
<path d="M851.296 69.0522C851.296 69.0522 832.919 83.7245 813.169 86.9095C793.42 90.0945 784.337 69.0522 784.337 69.0522L774.55 70.6268C774.55 70.6268 780.746 117.113 806.48 118.544C832.215 119.94 858.9 103.801 858.9 103.801L851.261 69.0522" fill="#40403F"/>
<path d="M880.057 103.085H968.174C971.378 103.085 974.37 105.733 974.828 108.954L984.403 175.051C984.861 178.307 982.643 180.955 979.44 180.955H891.322C888.119 180.955 885.126 178.307 884.669 175.051L875.093 108.954C874.635 105.697 876.853 103.085 880.057 103.085Z" fill="white"/>
<path d="M979.44 181.529H891.322C887.872 181.529 884.633 178.666 884.141 175.195L874.565 109.098C874.318 107.344 874.741 105.698 875.797 104.481C876.853 103.265 878.332 102.585 880.057 102.585H968.174C971.624 102.585 974.863 105.448 975.356 108.919L984.932 175.016C985.178 176.769 984.756 178.38 983.699 179.632C982.643 180.849 981.165 181.529 979.44 181.529ZM880.057 103.658C878.684 103.658 877.452 104.195 876.607 105.161C875.762 106.163 875.41 107.487 875.621 108.919L885.197 175.016C885.619 178.022 888.365 180.455 891.322 180.455H979.44C980.813 180.455 982.045 179.918 982.89 178.952C983.735 177.95 984.087 176.626 983.875 175.195L974.3 109.098C973.877 106.092 971.131 103.658 968.174 103.658H880.057Z" fill="#40403F"/>
<path d="M970.779 113.285H880.268C879.987 113.285 879.74 113.034 879.74 112.748C879.74 112.462 879.987 112.211 880.268 112.211H970.779C971.061 112.211 971.308 112.462 971.308 112.748C971.308 113.034 971.061 113.285 970.779 113.285Z" fill="#40403F"/>
<path d="M964.267 107.632C964.373 108.455 965.147 109.135 965.992 109.135C966.837 109.135 967.4 108.455 967.26 107.632C967.154 106.809 966.379 106.129 965.535 106.129C964.69 106.129 964.126 106.809 964.267 107.632Z" fill="#40403F"/>
<path d="M958.317 107.632C958.423 108.455 959.197 109.135 960.042 109.135C960.887 109.135 961.45 108.455 961.309 107.632C961.204 106.809 960.429 106.129 959.584 106.129C958.739 106.129 958.176 106.809 958.317 107.632Z" fill="#40403F"/>
<path d="M952.368 107.632C952.473 108.455 953.248 109.135 954.093 109.135C954.938 109.135 955.501 108.455 955.36 107.632C955.255 106.809 954.48 106.129 953.635 106.129C952.79 106.129 952.227 106.809 952.368 107.632Z" fill="#40403F"/>
<path d="M887.838 108.168H879.424C879.142 108.168 878.896 107.918 878.896 107.631C878.896 107.345 879.142 107.094 879.424 107.094H887.838C888.12 107.094 888.366 107.345 888.366 107.631C888.366 107.918 888.12 108.168 887.838 108.168Z" fill="#40403F"/>
<path d="M932.231 108.168H891.605C891.324 108.168 891.077 107.918 891.077 107.631C891.077 107.345 891.324 107.094 891.605 107.094H932.231C932.513 107.094 932.759 107.345 932.759 107.631C932.759 107.918 932.513 108.168 932.231 108.168Z" fill="#40403F"/>
<path d="M948.776 108.168H941.383C941.101 108.168 940.855 107.918 940.855 107.631C940.855 107.345 941.101 107.094 941.383 107.094H948.776C949.058 107.094 949.304 107.345 949.304 107.631C949.304 107.918 949.058 108.168 948.776 108.168Z" fill="#40403F"/>
<path d="M892.484 169.896H976.236L968.808 118.507H885.056L892.484 169.896Z" fill="#F2D020"/>
<path d="M966.837 168.682C966.837 168.682 979.124 141.986 966.908 113.607C956.241 88.7718 924.345 61.7533 881.748 62.4332L894.914 97.8257C894.914 97.8257 961.803 109.563 948.284 168.682H966.837Z" fill="#40403F"/>
<path d="M951.276 168.683L937.687 172.118C937.687 172.118 938.532 175.267 944.482 174.695C950.431 174.122 949.023 179.562 942.51 180.707C935.997 181.852 939.694 183.856 948.741 183.283C957.824 182.711 962.929 174.373 964.619 168.647H951.311" fill="white"/>
<path d="M945.714 183.964C942.792 183.964 938.814 183.678 938.638 182.211C938.532 181.316 939.694 180.672 942.37 180.207C946.031 179.563 947.826 177.523 947.686 176.378C947.58 175.519 946.348 175.089 944.517 175.268C938.18 175.877 937.195 172.441 937.159 172.298C937.124 172.155 937.159 172.012 937.23 171.869C937.3 171.761 937.406 171.654 937.547 171.618L951.136 168.183C951.136 168.183 951.206 168.183 951.276 168.183H964.584C964.584 168.183 964.901 168.254 965.006 168.397C965.112 168.54 965.147 168.719 965.077 168.863C963.14 175.447 957.684 183.32 948.742 183.893C948.39 183.893 947.193 184 945.714 184M939.8 182.139C940.398 182.533 943.074 183.177 948.671 182.819C956.768 182.318 961.838 175.34 963.844 169.256H951.312L938.427 172.513C938.955 173.264 940.433 174.588 944.411 174.195C948.143 173.837 948.671 175.662 948.742 176.234C948.988 178.131 946.735 180.529 942.581 181.28C940.715 181.602 940.046 181.96 939.8 182.103V182.139Z" fill="#40403F"/>
<path d="M858.3 64.5455L855.835 56.4579C855.307 56.5295 854.92 56.601 854.814 56.6368C851.716 57.3167 850.484 56.5295 849.639 54.0602C849.111 52.4856 848.513 50.1237 848.583 46.9746C848.583 46.6525 848.513 46.2946 848.301 46.0441L847.492 44.9348C847.281 44.5411 847.316 44.0759 847.597 43.718L847.809 43.4318C848.618 42.3582 849.217 41.1415 849.639 39.8532C850.026 38.6722 850.625 36.4535 851.259 35.9167C853.054 34.4494 860.306 28.1869 866.643 34.7C871.572 39.7816 867.594 49.3365 866.08 52.5214C865.833 53.0224 868.157 57.2452 869.882 60.3228C870.973 62.291 873.05 63.472 875.268 63.5077H878.014C878.014 63.5077 875.691 72.2038 862.947 73.0626C857.525 73.4205 856.61 72.5258 856.61 72.5258L857.772 70.2355C858.687 68.482 858.863 66.478 858.3 64.5813" fill="white"/>
<path d="M860.555 73.6337C857.211 73.6337 856.401 73.0254 856.225 72.8464C856.049 72.6675 856.014 72.417 856.119 72.2023L857.281 69.912C858.126 68.3016 858.302 66.4407 857.774 64.6872L855.45 57.0648C855.098 57.1363 854.958 57.1363 854.922 57.1721C851.684 57.8878 850.099 57.1006 849.114 54.2377C848.304 51.9116 847.952 49.5139 848.022 46.9373C848.022 46.7226 847.952 46.5079 847.846 46.3289L847.036 45.2196C847.036 45.2196 847.037 45.1838 847.001 45.148C846.684 44.5754 846.755 43.8597 847.142 43.3587L847.353 43.0724C848.093 42.1062 848.691 40.9252 849.078 39.6369C849.114 39.458 849.184 39.2791 849.254 39.1002C849.782 37.3466 850.24 35.951 850.874 35.45L851.05 35.3068C857.316 30.2252 862.632 29.8674 866.927 34.3048C871.926 39.458 868.335 48.7624 866.505 52.6273C866.575 52.9136 866.998 54.2377 870.236 59.9992C871.257 61.7885 873.123 62.8979 875.165 62.8979H877.911C877.911 62.8979 878.228 62.9695 878.333 63.1126C878.439 63.2558 878.474 63.4347 878.439 63.5778C878.439 63.6852 875.834 72.6317 862.879 73.5264C861.963 73.5979 861.154 73.6337 860.449 73.6337M857.246 72.2023C857.88 72.417 859.429 72.6675 862.808 72.4528C872.947 71.7371 876.292 65.9755 877.172 63.9715H875.165C872.771 63.9715 870.518 62.6474 869.321 60.536C865.096 53.0567 865.308 52.5915 865.484 52.2336C867.209 48.6192 870.729 39.7443 866.153 35.0205C860.344 29.0443 853.831 34.3764 851.684 36.0941L851.472 36.2373C851.05 36.5951 850.487 38.3844 850.205 39.3507C850.135 39.5654 850.099 39.7443 850.029 39.8874C849.571 41.2831 848.938 42.5714 848.128 43.645L847.917 43.9313C847.917 43.9313 847.776 44.3249 847.846 44.5396L848.621 45.6132C848.867 45.9711 849.008 46.4363 849.008 46.9015C848.938 49.335 849.254 51.5895 850.029 53.8082C850.733 55.8838 851.578 56.7069 854.606 56.0627C854.676 56.0627 854.852 56.027 855.662 55.8838C855.943 55.848 856.19 55.9912 856.26 56.2417L858.724 64.3293C859.323 66.3691 859.147 68.5163 858.161 70.3772L857.246 72.1307V72.2023Z" fill="#40403F"/>
<path d="M861.891 25.5387C859.567 25.5745 857.068 26.5407 855.906 26.3618C854.005 26.1113 853.477 23.9999 850.942 23.9999C847.844 23.9999 846.929 25.503 846.19 27.5428C846.084 27.8648 845.978 28.2585 845.908 28.6521C845.204 34.0558 848.091 35.9525 849.288 36.5251C849.288 36.5251 856.645 38.4217 857.983 39.1374C859.251 39.8174 860.976 41.714 860.905 45.0064C860.905 45.4358 861.152 45.7937 861.539 45.9368C861.997 46.0799 862.489 45.8652 862.665 45.4C863.229 43.9328 864.531 41.0699 866.01 41.3562C867.84 41.6783 868.474 46.8672 864.918 48.3345C863.827 48.7639 863.193 50.1596 863.581 51.3405C863.827 52.092 864.778 52.8793 865.904 52.8793C866.608 52.8793 867.207 52.4499 867.7 51.9489C869.742 49.8375 875.022 41.6425 874.494 35.5588C873.896 28.2227 864.954 25.5387 861.856 25.6103" fill="#40403F"/>
<path d="M854.993 57.0295C854.782 57.0295 854.57 56.8863 854.5 56.6716C854.429 56.4211 854.57 56.1348 854.852 56.0633C854.852 56.0633 857.246 55.3833 858.584 53.594C858.76 53.3793 859.041 53.3077 859.288 53.4867C859.499 53.6656 859.569 53.9519 859.393 54.2024C857.88 56.278 855.239 57.0295 855.134 57.0653C855.098 57.0653 855.063 57.0653 854.993 57.0653" fill="#40403F"/>
<path d="M765.924 161.417H862.173C863.722 161.417 864.99 160.129 864.99 158.555V155.871H763.072V158.555C763.072 160.129 764.34 161.417 765.889 161.417" fill="white"/>
<path d="M862.21 161.954H765.96C764.094 161.954 762.581 160.415 762.581 158.554V155.871C762.581 155.584 762.827 155.334 763.109 155.334H865.026C865.308 155.334 865.554 155.584 865.554 155.871V158.554C865.554 160.415 864.04 161.954 862.175 161.954M763.601 156.407V158.554C763.601 159.843 764.622 160.881 765.89 160.881H862.139C863.407 160.881 864.428 159.843 864.428 158.554V156.407H763.566H763.601Z" fill="#40403F"/>
<path d="M763.107 155.869H821.441L802.924 100.759C801.832 99.0411 799.896 97.9675 797.819 97.9675H748.533C746.28 97.9675 744.871 100.15 745.575 102.119C745.857 102.906 746.174 103.658 746.42 104.445L763.143 155.905" fill="white"/>
<path d="M821.406 156.407H763.072C762.825 156.407 762.649 156.264 762.579 156.049L745.857 104.589C745.681 104.052 745.469 103.479 745.258 102.943C745.188 102.728 745.082 102.513 745.012 102.298C744.589 101.225 744.765 100.008 745.434 99.0061C746.138 98.0041 747.23 97.3958 748.462 97.3958H797.748C800.001 97.3958 802.114 98.5409 803.311 100.402C803.311 100.438 803.346 100.473 803.381 100.509L821.899 155.62C821.899 155.62 821.899 155.978 821.828 156.121C821.723 156.264 821.582 156.335 821.406 156.335M763.459 155.262H820.631L802.36 100.903C801.339 99.364 799.614 98.4336 797.713 98.4336H748.427C747.546 98.4336 746.737 98.863 746.279 99.5787C745.821 100.259 745.716 101.118 745.997 101.869C746.068 102.084 746.173 102.298 746.244 102.513C746.455 103.05 746.666 103.623 746.878 104.195L763.459 155.262Z" fill="#40403F"/>
<path d="M784.724 126.242C785.428 128.569 784.372 130.966 782.366 131.575C780.359 132.183 778.176 130.787 777.472 128.461C776.768 126.135 777.824 123.737 779.831 123.129C781.837 122.521 784.02 123.916 784.724 126.242Z" fill="#40403F"/>
<path d="M783.631 158.662H812.71V151.576H783.631V158.662Z" fill="white"/>
<path d="M766.7 158.662H776.205V151.576H766.7V158.662Z" fill="white"/>
<path d="M972.363 97.2537C970.638 97.2537 969.229 95.8222 969.229 94.1045C969.229 92.3868 970.638 90.9553 972.363 90.9553C974.088 90.9553 975.496 92.3868 975.496 94.1045C975.496 95.8222 974.088 97.2537 972.363 97.2537ZM972.363 91.9931C971.236 91.9931 970.321 92.9236 970.321 94.0687C970.321 95.2139 971.236 96.1443 972.363 96.1443C973.489 96.1443 974.405 95.2139 974.405 94.0687C974.405 92.9236 973.489 91.9931 972.363 91.9931Z" fill="white"/>
<path d="M976.131 86.159C973.772 86.159 971.836 84.1908 971.836 81.7932C971.836 79.3955 973.772 77.4272 976.131 77.4272C978.49 77.4272 980.426 79.3955 980.426 81.7932C980.426 84.1908 978.49 86.159 976.131 86.159ZM976.131 78.5366C974.335 78.5366 972.892 80.0038 972.892 81.8289C972.892 83.654 974.335 85.1212 976.131 85.1212C977.926 85.1212 979.37 83.654 979.37 81.8289C979.37 80.0038 977.926 78.5366 976.131 78.5366Z" fill="white"/>
<path d="M971.801 72.6682C971.801 72.6682 971.66 72.6682 971.59 72.6324C971.414 72.5608 971.308 72.3819 971.273 72.203L970.005 60.5009C970.005 60.322 970.076 60.1073 970.217 59.9999C970.357 59.8926 970.569 59.8568 970.745 59.9283L981.412 64.6521C981.412 64.6521 981.693 64.9026 981.729 65.0815C981.729 65.2605 981.658 65.4752 981.517 65.5825L972.153 72.5608C972.153 72.5608 971.942 72.6682 971.836 72.6682M971.167 61.2882L972.258 71.1294L980.144 65.2605L971.167 61.2882Z" fill="white"/>
</g>
<defs>
<linearGradient id="paint0_linear_7274_28925" x1="111.5" y1="62.6667" x2="970.641" y2="197.545" gradientUnits="userSpaceOnUse">
<stop stop-color="#D24E04"/>
<stop offset="1" stop-color="#F2911C"/>
</linearGradient>
<clipPath id="clip0_7274_28925">
<path d="M0 10C0 4.47715 4.47715 0 10 0H1005C1010.52 0 1015 4.47715 1015 10V174C1015 179.523 1010.52 184 1005 184H10C4.47717 184 0 179.523 0 174V10Z" fill="white"/>
</clipPath>
</defs>
</svg>
