<svg width="971" height="580" viewBox="0 0 971 580" fill="none" xmlns="http://www.w3.org/2000/svg">
<path d="M918.916 582.693L955.774 554.584L995.199 546.254H1033.51L1100.23 524.812" stroke="#2563EB" stroke-width="3" stroke-miterlimit="10" stroke-linecap="square" stroke-linejoin="round"/>
<path d="M889.776 582.694L902.462 572.355L941.335 528.483L1010.75 521.822L1043.23 504.609L1100.23 503.11" stroke="#2563EB" stroke-width="3" stroke-miterlimit="10" stroke-linecap="square" stroke-linejoin="round"/>
<path d="M846.529 582.694L917.454 508.492L951.885 502.382L988.537 508.492L1024.63 486.28L1056.28 482.949L1100.23 465.573" stroke="#2563EB" stroke-width="3" stroke-miterlimit="10" stroke-linecap="square" stroke-linejoin="round"/>
<path d="M789.927 582.694L821.386 562.915L851.928 520.153L895.8 478.508L932.452 469.619L965.215 487.948L1032.4 457.958L1065.17 426.306L1100.23 415.063" stroke="#2563EB" stroke-width="3" stroke-miterlimit="10" stroke-linecap="square" stroke-linejoin="round"/>
<path d="M1100.23 375.839L1082.94 368L1048.51 377.441L983.538 458.516L943.003 472.398L930.535 459.93L919.96 449.355L916.902 446.297L894.805 444.058L894.744 444.052L878.588 442.414L876.349 444.78L875.166 446.03L745.928 582.694" stroke="#2563EB" stroke-width="3" stroke-miterlimit="10" stroke-linecap="square" stroke-linejoin="round"/>
<path d="M1100.23 344.891L1066.28 333.575L1029.07 346.899L961.326 444.077L930.535 459.931L923.564 463.516L911.563 455.399L894.805 444.059L894.781 444.035L873.964 420.84H873.958L861.927 407.431L852.571 416.271L847.311 421.246L842.84 425.469L821.386 445.746L741.979 552.916L708.203 582.694" stroke="#2563EB" stroke-width="3" stroke-miterlimit="10" stroke-linecap="square" stroke-linejoin="round"/>
<path d="M1100.23 310.162L1081.83 320.245L1048.51 316.356L1010.75 342.457L939.666 435.194L919.96 449.355L911.563 455.398L904.13 460.737L877.477 449.076L875.166 446.03L873.455 443.773L857.225 422.399L852.571 416.271L844.702 405.902L842.488 402.984L831.585 406.466L829.577 407.109L820.415 410.034L802.511 415.755L765.859 448.518L724.766 525.705L673.868 582.694" stroke="#2563EB" stroke-width="3" stroke-miterlimit="10" stroke-linecap="square" stroke-linejoin="round"/>
<path d="M646.9 582.694L665.902 566.246L705.885 517.933L743.089 437.415L776.956 402.141L783.072 395.77H800.842H821.386L828.964 406.26L829.577 407.11L839.096 420.287L842.84 425.469L850.266 435.747L873.455 443.774L876.349 444.781L886.36 448.245L894.744 444.053L894.781 444.034L919.122 431.864L992.699 333.575L1025.18 307.474L1055.73 302.475L1062.17 298.325L1075.49 289.77L1086.83 282.483L1099.58 296.608L1100.23 297.324" stroke="#2563EB" stroke-width="3" stroke-miterlimit="10" stroke-linecap="square" stroke-linejoin="round"/>
<path d="M1100.23 305.599L1089.29 302.602L1085.03 298.64L1075.49 289.77L1070.72 285.341L1063.01 278.163L1045.56 290.874L1038.4 296.092L1035.73 298.033L969.656 330.796L938.004 376.889L900.241 410.762L873.964 420.839H873.958L866.926 423.533L857.225 422.399L847.311 421.246L839.096 420.287L833.605 419.644L820.415 410.034L813.565 405.04L800.843 395.77L782.362 395.23H782.356L762.528 394.653L755.672 400.453L753.634 402.183L726.435 425.195L687.004 511.271L644.801 560.694L610.503 582.694" stroke="#2563EB" stroke-width="3" stroke-miterlimit="10" stroke-linecap="square" stroke-linejoin="round"/>
<path d="M574.767 582.694L628.699 547.546L668.493 494.61L706.255 429.455L740.905 401.394L743.277 399.471L755.673 400.454L769.518 401.552L776.956 402.14L813.566 405.04L828.964 406.26L831.585 406.466L841.378 407.243L844.703 405.902L883.581 390.212L915.974 368L953.548 332.465L982.24 318.207L1005 299.975L1012.04 294.332L1041.29 288.963L1045.56 290.874L1051.29 293.446L1062.17 298.325L1068.13 300.994L1085.03 298.64L1099.59 296.607L1100.23 296.523" stroke="#2563EB" stroke-width="3" stroke-miterlimit="10" stroke-linecap="square" stroke-linejoin="round"/>
<path d="M543.054 582.694L567.923 569.637L607.166 533.113L684.413 434.885L724.766 400.393L740.905 401.394L753.634 402.183L766.6 402.983L769.518 401.552L782.356 395.23H782.362L789.552 391.692L828.236 388.92L863.96 371.889L912.091 345.418L965.585 319.693L993.349 301.364L1005 299.975L1021.3 298.033L1038.4 296.092L1047.4 295.072L1051.29 293.446L1070.72 285.341L1079.79 281.561L1100.23 273.243" stroke="#2563EB" stroke-width="3" stroke-miterlimit="10" stroke-linecap="square" stroke-linejoin="round"/>
<path d="M468.288 582.694L460.631 576.196L440.64 559.214L435.082 558.662L386.211 553.832L346.975 549.955L303.479 571.797L292.267 582.694" stroke="#2563EB" stroke-width="3" stroke-miterlimit="10" stroke-linecap="square" stroke-linejoin="round"/>
<path d="M508.568 582.694L548.921 560.695L589.456 520.154L630.919 466.016L667.571 429.734L704.593 407.613L775.852 381.882L810.283 376.519L843.046 359.118L913.753 335.238L943.185 327.648L970.579 309.143L1031.85 284.334L1080.35 258.421L1100.23 249.751" stroke="#2563EB" stroke-width="3" stroke-miterlimit="10" stroke-linecap="square" stroke-linejoin="round"/>
<path d="M1100.23 223.984L1068.68 237.69L1012.04 275.452L960.955 298.034L920.602 325.797L855.817 345.049L826.943 350.97L787.331 371.332C787.331 371.332 755.678 383.363 754.38 383.921C753.087 384.479 719.584 388.362 719.584 388.362L646.281 421.865L615.926 454.628L567.801 514.232L532.26 548.293L489.316 571.986L460.631 576.196L448.963 577.907L414.168 565.318L376.715 558.796L365.303 556.806L331.242 579.388L329.943 582.694" stroke="#2563EB" stroke-width="3" stroke-miterlimit="10" stroke-linecap="square" stroke-linejoin="round"/>
<path d="M1100.23 207.554L1070.91 214.367L1049.43 218.068L986.869 266.199L940.224 288.963L882.841 318.765L830.275 336.536L771.411 369.851L733.648 374.298L706.255 371.701L659.799 402.984L628.698 417.982L589.274 450.927L554.842 498.312L515.23 533.113L479.324 551.254L435.082 558.662L393.989 549.773L386.211 553.832L376.716 558.795L347.903 573.836L343.995 582.694" stroke="#2563EB" stroke-width="3" stroke-miterlimit="10" stroke-linecap="square" stroke-linejoin="round"/>
<path d="M1100.23 197.16L1057.33 204.865L1031.17 207.583L984.769 237.938L914.681 267.06L883.338 290.752L855.199 313.456L803.373 333.575L755.988 356.648H723.905L688.114 365.039L648.138 379.849L614.568 397.122L579.032 427.483L540.53 482.518L498.818 515.342L460.564 531.632L375.417 544.955H330.083H327.292L311.099 553.389L285.587 566.676L266.979 582.693" stroke="#2563EB" stroke-width="3" stroke-miterlimit="10" stroke-linecap="square" stroke-linejoin="round"/>
<path d="M1100.23 183.546L1068.31 191.415L1038.69 187.714L1015.19 190.122L986.128 218.626L931.335 235.099L879.88 263.79L837.306 309.142L805.472 321.356L769.93 325.427L736.985 342.828L703.664 333.575L669.979 337.646L634.067 350.97L597.786 382.07L560.023 402.893L520.047 453.147L480.804 490.169L356.045 528.301L330.083 544.956L321.619 550.386L311.099 553.389L270.157 565.075L248.734 582.694" stroke="#2563EB" stroke-width="3" stroke-miterlimit="10" stroke-linecap="square" stroke-linejoin="round"/>
<path d="M231.516 582.694L297.921 536.074L343.091 495.351L426.752 448.245L466.735 442.318L511.158 393.173L547.44 368L575.574 353.937L615.563 320.294L622.218 314.694L631.392 318.486L640.359 322.187L662.244 322.278L677.66 322.345L679.159 322.351L687.447 322.381L695.54 322.418L697.178 322.424L704.405 322.454H704.471L726.362 322.545L738.096 322.594L802.384 298.034L858.099 240.098L896.17 202.154L929.115 187.344L977.859 163.652L993.64 160.236L1001.8 158.47L1008.01 162.068L1018.83 168.341L1021.09 167.274L1044 156.492L1070.17 128.607L1100.23 93.3995" stroke="#2563EB" stroke-width="3" stroke-miterlimit="10" stroke-linecap="square" stroke-linejoin="round"/>
<path d="M1100.23 136.537L1058.56 169.33L1039 175.003L1033.88 176.483L1026.44 171.126L1021.09 167.273L1010.96 159.974L1009.2 158.712L994.956 149.587L993.409 148.598L978.587 144.782L975.475 143.981L968.485 142.179L962.187 144.636L961.86 144.764L916.653 162.419L880.25 189.752L812.504 269.711L778.073 298.033L726.362 322.545L721.065 325.056L713.257 325.791L705.333 326.537L700.722 324.207L697.179 322.423L696.578 322.12L687.453 317.515L686.264 316.914L674.481 316.981L666.691 317.03L654.611 317.096L650.613 315.543L642.095 312.224L622.583 304.634L617.037 302.474L610.582 303.039L599.794 303.985L597.974 304.143L588.825 307.65L581.866 310.313L567.062 315.986L528.189 351.346L490.245 362.819L455.262 388.732L420.83 402.892L382.328 421.864L328.281 454.257L240.914 552.364L196.896 582.694" stroke="#2563EB" stroke-width="3" stroke-miterlimit="10" stroke-linecap="square" stroke-linejoin="round"/>
<path d="M1100.23 168.481C1088.65 174.402 1077.94 179.942 1077.94 179.942L1050.17 184.753L1039 175.003L1032.77 169.573L1026.44 171.126L997.978 178.091L971.689 198.823L911.721 219.548L880.25 237.689L820.895 304.325L783.812 316.174L758.087 319.505L723.098 329.504L713.257 325.791L704.441 322.466L704.405 322.454L700.516 320.986L696.578 322.12L695.541 322.418L690.802 323.777L684.414 325.615L678.486 322.739L677.661 322.345L666.691 317.03L660.169 313.869L654.733 311.23L636.659 302.475L622.583 304.635L616.115 305.624L610.582 303.039L590.754 293.774L578.08 294.551L559.969 295.661L549.17 296.329L548.551 296.365L510.789 323.576L471.546 339.127L435.641 342.457L313.472 427.234L228.452 521.634L138.9 582.694" stroke="#2563EB" stroke-width="3" stroke-miterlimit="10" stroke-linecap="square" stroke-linejoin="round"/>
<path d="M98.9233 582.694C113.157 568.412 130.594 550.144 130.594 550.144L213.52 490.17L299.408 393.174L349.753 368.001L420.83 302.105L464.514 316.175L525.841 287.841L530.938 285.487L537.442 282.484L561.322 291.002L569.373 290.772L593.715 290.074L627.036 295.255L692.561 271.193L723.286 255.831L761.661 214.367L817.194 136.258L848.785 118.239L874.698 106.887L900.484 127.115L903.33 129.348L912.91 130.84L926.215 132.915L930.225 133.54L931.154 133.577L947.857 134.244L954.907 134.529L962.806 132.691L979.339 128.85L1005.75 105.898L1044.99 56.2928L1094.35 1.50006L1100.23 4.69747L1100.53 4.86735" stroke="#2563EB" stroke-width="3" stroke-miterlimit="10" stroke-linecap="square" stroke-linejoin="round"/>
<path d="M1100.23 58.1792L1087.2 68.8817L1028.7 147.361L1010.96 159.975L1008.01 162.068L1000.57 167.352L993.64 160.235L988.464 154.921L978.587 144.782L976.852 142.999L973.169 139.219L962.806 132.69L953.178 126.629L942.154 130.106L931.154 133.576L929.892 133.977L922.362 136.349L866.18 167.352L832.125 224.366L789.922 266.569L741.239 305.253L704.471 322.454L704.441 322.466L700.722 324.207L696.536 326.167L690.802 323.776L687.447 322.381L682.581 320.355L674.481 316.981L664.98 313.025L660.169 313.869L650.613 315.543L645.747 316.393L642.768 316.915L638.57 315.646L627.23 312.225L623.147 310.993L613.846 310.089L588.825 307.65L576.011 306.4L573.724 306.176L549.17 296.329L540.961 293.034L525.841 287.841L513.519 283.612L504.309 280.451L465.442 285.262L439.238 292.373L428.602 295.255L402.319 282.301L322.111 347.766L281.637 364.299L155.027 505.992L100.234 547.176L64.3708 582.694" stroke="#2563EB" stroke-width="3" stroke-miterlimit="10" stroke-linecap="square" stroke-linejoin="round"/>
<path d="M1100.23 28.2985L1092.38 37.0413L1064.06 62.032L1012.97 134.778L994.957 149.588L988.465 154.921L982.798 159.58L962.855 145.116L962.188 144.637L947.857 134.244L942.154 130.106L935.656 125.398L916.241 130.045L912.91 130.84L884.079 137.738L849.769 156.001L817.443 209.804L783.873 248.301L716.746 300.442L687.453 317.515L682.581 320.355L679.159 322.351L678.486 322.739L672.813 326.046L662.244 322.278L645.747 316.393L640.979 314.694L638.57 315.647L631.392 318.486L622.959 321.817L615.563 320.294L588.406 314.694L581.866 310.314L576.011 306.4L559.969 295.661L554.843 292.233L530.938 285.487L520.29 282.483L513.519 283.612L445.512 294.951L439.238 292.373L409.661 280.202L381.837 278.91L348.024 301.243L330.011 303.585L306.622 321.817L264.977 339.127L222.221 388.732L141.697 490.169L97.2735 518.491L35.2971 582.694" stroke="#2563EB" stroke-width="3" stroke-miterlimit="10" stroke-linecap="square" stroke-linejoin="round"/>
<path d="M1100.53 4.86664L1100.23 5.02439L1091.64 9.64758L1046.84 75.1732L994.641 130.33L976.852 142.998L975.474 143.981L970.208 147.731L962.855 145.116L961.86 144.764L938.246 136.379L929.892 133.976L926.215 132.915L916.24 130.045L905.671 126.999L900.484 127.114L861.866 127.988L832.616 151.68L769.748 236.949L707.123 288.963L667.383 308.772L654.732 311.229L649.618 312.224H642.095H627.23H618.766L613.846 310.089L599.794 303.985L578.08 294.551L569.373 290.771L565.211 288.963L522.51 278.163L489.444 276.932L451.931 286.063L391.956 271.01L371.965 268.541L332.971 274.22L265.098 315.925L211.791 357.14L171.56 421.865L127.876 467.708L82.9606 502.51L2.12134 582.694" stroke="#2563EB" stroke-width="3" stroke-miterlimit="10" stroke-linecap="square" stroke-linejoin="round"/>
</svg>
